<svg width="523" height="238" viewBox="0 0 523 238" fill="none" xmlns="http://www.w3.org/2000/svg">
<path d="M111.536 63.9566V151.522H42.8045V55.1511L19.8124 63.9566V151.522H7.09332L0 165.954H19.8124V237.132L42.8045 228.815V165.954H111.536V237.132L134.284 228.815V55.1511L111.536 63.9566Z" fill="#3DCA86"/>
<path d="M250.057 58.8201C265.548 58.8201 278.185 63.0598 287.969 71.5391C297.916 79.8554 302.89 92.4114 302.89 109.207C302.89 122.578 298.406 135.053 289.437 146.631C280.468 158.045 268.972 167.177 254.949 174.025C241.088 180.874 227.146 184.299 213.123 184.299C211.655 184.299 210.758 184.135 210.432 183.809L211.655 177.205C222.58 176.064 233.261 172.639 243.697 166.932C254.133 161.225 262.613 153.805 269.135 144.674C275.821 135.379 279.164 125.106 279.164 113.854C279.164 101.625 275.413 91.8407 267.912 84.5028C260.574 77.1649 249.649 73.4959 235.136 73.4959C223.885 73.4959 211.981 76.1865 199.425 81.5676C187.032 86.7857 176.188 93.6344 166.894 102.114L162.246 96.9773C174.15 85.8888 188.011 76.7572 203.828 69.5824C219.808 62.4075 235.218 58.8201 250.057 58.8201ZM200.404 228.326L177.901 236.887V103.092L200.404 94.2867V228.326Z" fill="#3DCA86"/>
<path d="M415.189 55.1511C425.625 55.1511 434.023 58.0863 440.382 63.9566C446.742 69.827 449.921 77.491 449.921 86.9488C449.921 94.4498 447.883 102.195 443.807 110.186C439.893 118.176 434.675 125.187 428.152 131.221C421.63 137.254 414.781 141.331 407.606 143.451L405.16 139.048C412.172 135.95 417.798 130.976 422.037 124.128C426.44 117.279 428.642 110.022 428.642 102.358C428.642 92.5745 425.706 84.7474 419.836 78.8771C413.966 72.8437 406.139 69.827 396.355 69.827C386.571 69.827 377.358 73.3329 368.715 80.3446C360.073 87.3564 353.142 96.7327 347.924 108.473C342.706 120.051 340.097 132.444 340.097 145.652C340.097 160.002 342.299 172.639 346.701 183.565C351.104 194.49 357.301 202.969 365.291 209.003C373.444 214.873 382.739 217.808 393.175 217.808C401.002 217.808 408.666 216.178 416.167 212.916C423.668 209.492 430.517 204.6 436.713 198.241L442.094 203.622C424.81 225.472 404.345 236.398 380.7 236.398C367.492 236.398 356.078 233.136 346.457 226.614C336.836 220.091 329.417 211.286 324.198 200.197C319.143 188.946 316.616 176.471 316.616 162.774C316.616 142.717 321.019 124.535 329.824 108.229C338.793 91.7592 350.86 78.7955 366.025 69.3378C381.19 59.88 397.578 55.1511 415.189 55.1511Z" fill="#3DCA86"/>
<path fill-rule="evenodd" clip-rule="evenodd" d="M486.5 109.71V8L502.5 0.5V100.5L486.5 109.71Z" fill="#3DCA86"/>
<path fill-rule="evenodd" clip-rule="evenodd" d="M523 38.472H460L467.415 26.1186H523V38.472Z" fill="#3DCA86"/>
</svg>
