<svg width="42" height="56" viewBox="0 0 42 56" fill="none" xmlns="http://www.w3.org/2000/svg">
<path d="M25.3718 23.8832C21.3166 20.4639 10.565 15.4403 2.74303e-05 22.7C4.06131 26.6991 14.8215 32.5344 25.3718 23.8832Z" fill="#3DCA86"/>
<path d="M26.114 0L28.5078 1.45078V14.874C34.261 9.13125 39.8249 8.66866 42 9.21245C41.0926 18.767 33.2421 21.4437 28.5078 21.6799V47.6579L26.114 49.5439V0Z" fill="#9AE17B"/>
<path d="M29.9585 25.5374C23.0432 26.7222 8.35645 24.2172 4.93262 4.71873C13.0328 4.06588 29.3782 7.31562 29.9585 25.5374Z" fill="#60EC87"/>
<path d="M19.0458 41.7902C17.4664 40.4682 18.3874 38.6378 19.0453 37.8879C16.254 37.8883 16.5353 35.9294 17.0248 34.9499C15.4087 34.1054 15.9226 32.4863 16.3816 31.7822C15.7939 31.2314 15.7693 30.4509 15.8305 30.1296C15.1327 30.2766 14.2848 29.8543 13.9481 29.6248C10.3206 25.1721 15.2788 24.4827 15.4164 23.9318C15.5266 23.491 16.3192 23.1359 16.7018 23.0134C13.7634 21.7651 15.477 19.4938 16.7011 18.5142C19.7493 16.8978 20.1751 19.1871 20.0069 20.5338C20.4475 19.2483 21.5982 18.6513 22.1185 18.5135C20.1714 14.7675 22.929 14.3203 24.5512 14.5649C27.416 15.2623 27.1226 17.7017 26.6177 18.8342C29.0784 18.3931 30.6732 19.7824 31.163 20.5322C31.7874 20.275 33.9941 19.9656 35.0194 19.843C38.1046 20.2833 37.4377 22.7503 36.7186 23.9288C37.8204 23.6348 38.0653 23.8062 38.05 23.9286C40.4741 24.5159 39.5807 26.836 38.831 27.9226C40.5941 28.5468 40.3616 29.8659 40.025 30.4475C39.2831 32.8768 36.2628 32.5222 34.4949 31.9385C35.7136 32.5716 35.3814 34.3687 35.0215 35.2687C36.4172 35.3787 36.4296 36.1102 36.2613 36.4622C35.3894 39.5842 33.6446 37.8858 33.7824 38.3449C33.8927 38.7121 33.4918 39.2325 33.2776 39.4468C34.1959 40.6954 32.2527 42.5076 31.1663 43.2576C33.5538 44.8733 32.1614 46.5324 31.1668 47.1599C31.9932 47.4047 33.4074 48.2339 32.4526 49.593C31.4979 50.952 29.8207 51.445 29.1015 51.5217C29.3221 53.0642 28.5816 54.3069 28.1837 54.7355C23.2259 57.7111 23.0264 53.8333 23.5464 51.5225C19.2127 52.6249 19.0164 50.1458 19.46 48.7684C17.403 46.8589 18.327 44.8816 19.0462 44.1316C18.385 43.5073 18.7705 42.3106 19.0458 41.7902Z" fill="#A666D8"/>
<mask id="mask0" mask-type="alpha" maskUnits="userSpaceOnUse" x="12" y="14" width="29" height="42">
<path d="M19.0458 41.7904C17.4664 40.4684 18.3874 38.638 19.0453 37.888C16.254 37.8884 16.5353 35.9296 17.0248 34.9501C15.4087 34.1056 15.9226 32.4864 16.3816 31.7824C15.7939 31.2316 15.7693 30.4511 15.8305 30.1297C15.1327 30.2768 14.2848 29.8545 13.9481 29.625C10.3206 25.1723 15.2788 24.4829 15.4164 23.932C15.5266 23.4912 16.3192 23.1361 16.7018 23.0136C13.7634 21.7653 15.477 19.494 16.7011 18.5144C19.7493 16.898 20.1751 19.1873 20.0069 20.534C20.4475 19.2485 21.5982 18.6515 22.1185 18.5137C20.1714 14.7677 22.929 14.3204 24.5512 14.5651C27.416 15.2625 27.1226 17.7019 26.6177 18.8344C29.0784 18.3933 30.6732 19.7826 31.163 20.5324C31.7874 20.2752 33.9941 19.9658 35.0194 19.8432C38.1046 20.2835 37.4377 22.7505 36.7186 23.929C37.8204 23.635 38.0653 23.8063 38.05 23.9288C40.4741 24.5161 39.5807 26.8362 38.831 27.9228C40.5941 28.5469 40.3616 29.8661 40.025 30.4477C39.2831 32.877 36.2628 32.5224 34.4949 31.9387C35.7136 32.5717 35.3814 34.3688 35.0215 35.2689C36.4172 35.3789 36.4296 36.1104 36.2613 36.4624C35.3894 39.5844 33.6446 37.886 33.7824 38.3451C33.8927 38.7123 33.4918 39.2327 33.2776 39.447C34.1959 40.6956 32.2527 42.5078 31.1663 43.2578C33.5538 44.8735 32.1614 46.5325 31.1668 47.1601C31.9932 47.4049 33.4074 48.2341 32.4526 49.5932C31.4979 50.9522 29.8207 51.4452 29.1015 51.5218C29.3221 53.0644 28.5816 54.3071 28.1837 54.7357C23.2259 57.7113 23.0264 53.8335 23.5464 51.5226C19.2127 52.6251 19.0164 50.146 19.46 48.7686C17.403 46.8591 18.327 44.8818 19.0462 44.1318C18.385 43.5075 18.7705 42.3107 19.0458 41.7904Z" fill="#A666D8"/>
</mask>
<g mask="url(#mask0)">
<path d="M40.0006 2.85735C45.1388 10.3895 44.5693 31.7324 1.18576 56.8469C-5.86671 46.6628 -7.9772 21.6071 40.0006 2.85735Z" fill="#9B48DC"/>
</g>
</svg>
